<svg xmlns="http://www.w3.org/2000/svg" width="16" height="17" viewBox="0 0 16 17" fill="none">
                            <path fill-rule="evenodd" clip-rule="evenodd" d="M12.9621 3.80861C12.9377 3.74964 12.9015 3.69439 12.8536 3.64645C12.8056 3.59851 12.7504 3.56234 12.6914 3.53794C12.6324 3.51349 12.5678 3.5 12.5 3.5H12.4999H6.5C6.22386 3.5 6 3.72386 6 4C6 4.27614 6.22386 4.5 6.5 4.5H11.2929L3.14645 12.6464C2.95118 12.8417 2.95118 13.1583 3.14645 13.3536C3.34171 13.5488 3.65829 13.5488 3.85355 13.3536L12 5.20711V10C12 10.2761 12.2239 10.5 12.5 10.5C12.7761 10.5 13 10.2761 13 10V4.00049V4C13 3.999 13 3.998 13 3.997C12.9996 3.9303 12.9861 3.86669 12.9621 3.80861Z" fill="black" fill-opacity="0.95"></path>
                        </svg>