<svg id="Layer_1" data-name="Layer 1" xmlns="http://www.w3.org/2000/svg" width="64" height="64" viewBox="0 0 64 64">
  <g>
    <polygon points="33.08 3.59 35.5 3.93 33.76 5.65 34.19 8.05 32.02 6.93 29.86 8.08 30.26 5.67 28.5 3.97 30.92 3.6 31.98 1.41 33.08 3.59" style="fill: #3694ed; stroke-width: 0px;"></polygon>
    <polygon points="39.54 5.2 41.42 5.46 40.07 6.8 40.4 8.67 38.71 7.8 37.03 8.69 37.34 6.81 35.97 5.49 37.85 5.21 38.68 3.49 39.54 5.2" style="fill: #3694ed; stroke-width: 0px;"></polygon>
    <polygon points="26.14 5.2 28.03 5.46 26.67 6.8 27.01 8.67 25.32 7.8 23.64 8.69 23.95 6.81 22.57 5.49 24.46 5.21 25.29 3.49 26.14 5.2" style="fill: #3694ed; stroke-width: 0px;"></polygon>
  </g>
  <path d="m45.34,6.59c9.23,4.82,15.54,14.48,15.54,25.62,0,15.95-12.93,28.88-28.88,28.88S3.12,48.16,3.12,32.21c0-10.97,6.11-20.5,15.11-25.4" style="fill: none; stroke: #3694ed; stroke-linecap: round; stroke-miterlimit: 10;"></path>
  <path d="m44.43,10.3c8.61,4.49,14.48,13.5,14.48,23.88,0,14.86-12.05,26.92-26.92,26.92S5.08,49.04,5.08,34.18c0-10.22,5.7-19.11,14.09-23.67" style="fill: none; stroke: #3694ed; stroke-linecap: round; stroke-miterlimit: 10; stroke-width: 1px;"></path>
  <g>
    <path d="m18.03,35.12c-.47-1.34-.74-2.78-.74-4.3,0-4.94,4-8.94,8.94-8.94,1.29,0,2.52.28,3.63.77" style="fill: none; stroke: #211e1f; stroke-miterlimit: 10;"></path>
    <path d="m39.59,29.31c-.88.93-2.12,1.51-3.5,1.51-1.29,0-2.46-.51-3.32-1.33,0,0-1.45,1.11-1.85,1.41-1.08.81-1.99,1.24-2.94,1.24-1.3,0-2.46-.62-3.19-1.59,0,0,5.37-4.96,7.2-6.56,1.53-1.35,3.57-2.11,5.77-2.11,4.94,0,8.94,4,8.94,8.94,0,1.72-.34,3.33-.93,4.82" style="fill: none; stroke: #211e1f; stroke-miterlimit: 10;"></path>
    <line x1="37.85" y1="30.49" x2="43.86" y2="36.99" style="fill: none; stroke: #211e1f; stroke-miterlimit: 10;"></line>
    <path d="m41.14,39.52c.37.35.87.54,1.4.53.52-.01,1.02-.23,1.37-.59.67-.7.65-1.78-.05-2.46" style="fill: none; stroke: #211e1f; stroke-miterlimit: 10;"></path>
    <path d="m38.63,42.49c.37.38.58.9.58,1.43s-.21,1.05-.58,1.43c-.77.79-2.03.79-2.8,0l-.66-.67" style="fill: none; stroke: #211e1f; stroke-miterlimit: 10;"></path>
    <path d="m22.51,39.21l-.29.29c-.36.36-.86.56-1.37.55-.51-.01-1-.24-1.34-.62-.66-.73-.64-1.85.05-2.56l.29-.29c.72-.73,1.9-.75,2.64-.04.37.35.58.83.58,1.33,0,.5-.19.99-.55,1.35Z" style="fill: none; stroke: #211e1f; stroke-miterlimit: 10;"></path>
    <circle cx="29.69" cy="46.67" r="2.02" style="fill: none; stroke: #211e1f; stroke-miterlimit: 10;"></circle>
    <path d="m22.01,39.68l.41-.41c.79-.79,2.07-.79,2.85,0,.79.79.79,2.07,0,2.85l-.41.41c-.79.79-2.07.79-2.85,0-.79-.79-.79-2.07,0-2.85Z" style="fill: none; stroke: #211e1f; stroke-miterlimit: 10;"></path>
    <path d="m34.45,43.94l.79.85c.67.73.67,1.91,0,2.64-.32.35-.76.55-1.22.55" style="fill: none; stroke: #211e1f; stroke-miterlimit: 10;"></path>
    <path d="m39.64,38.02l1.88,1.88c.76.76.76,1.98,0,2.74-.76.76-1.99.76-2.74,0l-1.88-1.88" style="fill: none; stroke: #211e1f; stroke-miterlimit: 10;"></path>
    <path d="m25.18,42.57l.41-.41c.79-.79,2.07-.79,2.85,0,.79.79.79,2.07,0,2.85l-.41.41c-.79.79-2.07.79-2.85,0-.79-.79-.79-2.07,0-2.85Z" style="fill: none; stroke: #211e1f; stroke-miterlimit: 10;"></path>
  </g>
</svg>
