<svg id="Layer_1" data-name="Layer 1" xmlns="http://www.w3.org/2000/svg" width="64" height="64" viewBox="0 0 64 64">
  <g>
    <path d="m32.81,31.37l3.89-9.37h8.46l-5.5,13.26m-8.48-3.89l-3.89-9.37h-8.46l5.5,13.26m7.66,14.74c5.19,0,9.4-4.18,9.4-9.33s-4.21-9.33-9.4-9.33-9.4,4.18-9.4,9.33,4.21,9.33,9.4,9.33Zm0-2.33c3.89,0,7.05-3.13,7.05-7s-3.16-7-7.05-7-7.05,3.13-7.05,7,3.16,7,7.05,7Z" style="fill: none; stroke: #111; stroke-miterlimit: 10;"></path>
    <path d="m33.63,37.63c-.66,0-1.25.31-1.63.8-.38-.49-.97-.8-1.63-.8-1.14,0-2.07.93-2.07,2.07,0,1.85,3.7,4.63,3.7,4.63,0,0,3.7-2.78,3.7-4.63,0-1.14-.93-2.07-2.07-2.07Z" style="fill: none; stroke: #111; stroke-miterlimit: 10;"></path>
  </g>
  <g>
    <polygon points="33.08 3.59 35.5 3.93 33.76 5.65 34.19 8.05 32.02 6.93 29.86 8.08 30.26 5.67 28.5 3.97 30.92 3.6 31.98 1.41 33.08 3.59" style="fill: #3694ed; stroke-width: 0px;"></polygon>
    <polygon points="39.54 5.2 41.42 5.46 40.07 6.8 40.4 8.67 38.71 7.8 37.03 8.69 37.34 6.81 35.97 5.49 37.85 5.21 38.68 3.49 39.54 5.2" style="fill: #3694ed; stroke-width: 0px;"></polygon>
    <polygon points="26.14 5.2 28.03 5.46 26.67 6.8 27.01 8.67 25.32 7.8 23.64 8.69 23.95 6.81 22.57 5.49 24.46 5.21 25.29 3.49 26.14 5.2" style="fill: #3694ed; stroke-width: 0px;"></polygon>
  </g>
  <path d="m45.34,6.59c9.23,4.82,15.54,14.48,15.54,25.62,0,15.95-12.93,28.88-28.88,28.88S3.12,48.16,3.12,32.21c0-10.97,6.11-20.5,15.11-25.4" style="fill: none; stroke: #3694ed; stroke-linecap: round; stroke-miterlimit: 10;"></path>
  <path d="m44.43,10.3c8.61,4.49,14.48,13.5,14.48,23.88,0,14.86-12.05,26.92-26.92,26.92S5.08,49.04,5.08,34.18c0-10.22,5.7-19.11,14.09-23.67" style="fill: none; stroke: #3694ed; stroke-linecap: round; stroke-miterlimit: 10; stroke-width: 1px;"></path>
</svg>
