<svg xmlns="http://www.w3.org/2000/svg" width="48" height="48" viewBox="0 0 48 48">
  <path d="m35.89,30.82c.48.45,1.14.7,1.81.68.68-.02,1.32-.29,1.78-.77.88-.91.85-2.31-.06-3.2l-8.3-8.04" fill="none" stroke="#111" stroke-miterlimit="10" stroke-width="1.5"/>
  <path d="m32.62,34.69c.48.49.75,1.16.75,1.86s-.27,1.37-.75,1.86c-1.01,1.03-2.64,1.03-3.64,0l-.85-.87" fill="none" stroke="#111" stroke-miterlimit="10" stroke-width="1.5"/>
  <circle cx="17.25" cy="36.38" r="2.62" fill="none" stroke="#00a3e0" stroke-linecap="square" stroke-miterlimit="10" stroke-width="1.5"/>
  <path d="m11.66,30.41l-.37.37c-.47.47-1.12.73-1.79.71-.67-.02-1.3-.31-1.75-.8-.86-.95-.84-2.41.06-3.33l.37-.38c.93-.96,2.47-.98,3.43-.06.48.45.75,1.08.76,1.73,0,.66-.25,1.29-.71,1.75Z" fill="none" stroke="#00a3e0" stroke-linecap="square" stroke-miterlimit="10" stroke-width="1.5"/>
  <circle cx="21" cy="40.12" r="2.62" fill="none" stroke="#00a3e0" stroke-linecap="square" stroke-miterlimit="10" stroke-width="1.5"/>
  <path d="m11,31.03l.53-.53c1.03-1.03,2.69-1.03,3.71,0,1.03,1.03,1.03,2.69,0,3.71l-.53.53c-1.03,1.03-2.69,1.03-3.71,0-1.03-1.03-1.03-2.69,0-3.71Z" fill="none" stroke="#00a3e0" stroke-linecap="square" stroke-miterlimit="10" stroke-width="1.5"/>
  <polyline points="8.22 23.25 8.22 19.5 5.62 17 14.69 8.25 16.64 10.12 19.88 10.12" fill="none" stroke="#111" stroke-miterlimit="10" stroke-width="1.5"/>
  <path d="m27.19,36.56l1.03,1.11c.88.95.88,2.48,0,3.43-.42.46-.99.71-1.59.71" fill="none" stroke="#111" stroke-miterlimit="10" stroke-width="1.5"/>
  <path d="m33.94,28.88l2.45,2.45c.98.99.98,2.58,0,3.57-.99.98-2.58.98-3.57,0l-2.44-2.44" fill="none" stroke="#111" stroke-miterlimit="10" stroke-width="1.5"/>
  <path d="m39.83,23.25v-3.75l2.54-2.5-8.91-8.75-1.91,1.88h-4.17c-2.04,0-3.99.79-5.43,2.21-4.89,4.56-7.34,6.83-7.34,6.83,1.67,2.74,5.41,2.18,6.73,1.31l3.82-2.7c1.17,1.19,2.59,1.73,4.24,1.71,1.65-.02,3.2-.74,4.27-1.97" fill="none" stroke="#00a3e0" stroke-linecap="square" stroke-miterlimit="10" stroke-width="1.5"/>
</svg>
