<svg width="24" height="24" viewBox="0 0 24 24" fill="none" xmlns="http://www.w3.org/2000/svg">
<path d="M18.1015 6.39496V5.99496H17.8937L17.7742 6.16498L18.1015 6.39496ZM17.0864 9.05143L16.6895 9.10105L16.6899 9.10403L17.0864 9.05143ZM18.2958 15.2499L17.9303 15.0874L17.9264 15.0962L17.9229 15.1052L18.2958 15.2499ZM15.8121 17.3016L15.9064 17.6904L15.9125 17.6888L15.8121 17.3016ZM12.011 19.2022L11.6774 19.4228L12.011 19.9273L12.3447 19.4228L12.011 19.2022ZM8.2099 17.3016L8.30414 16.9129L8.30352 16.9127L8.2099 17.3016ZM5.72621 15.2499L6.10256 15.1144L6.09764 15.1007L6.09173 15.0874L5.72621 15.2499ZM6.93566 9.05143L7.3322 9.10403L7.33257 9.10104L6.93566 9.05143ZM5.92058 6.39496L5.61772 6.13367L5.41401 6.36979L5.59331 6.62494L5.92058 6.39496ZM6.87087 5.2935L7.05556 4.93869L6.77478 4.79253L6.568 5.03221L6.87087 5.2935ZM12.0326 4.81836L12.2819 4.50554L12.0351 4.30884L11.7864 4.50315L12.0326 4.81836ZM17.1944 5.2935L17.4972 5.03221L17.2882 4.78988L17.0059 4.94069L17.1944 5.2935ZM18.1447 6.39496V6.79496H19.018L18.4475 6.13367L18.1447 6.39496ZM11.9894 9.00824L12.3472 8.82935L11.9894 8.11381L11.6317 8.82935L11.9894 9.00824ZM11.1471 10.6928L11.2069 11.0883L11.4121 11.0573L11.5049 10.8717L11.1471 10.6928ZM9.28976 10.9736L9.22998 10.5781L8.43099 10.6989L9.01152 11.261L9.28976 10.9736ZM10.6504 12.291L11.0444 12.3598L11.0808 12.151L10.9286 12.0037L10.6504 12.291ZM10.3264 14.1484L9.93238 14.0797L9.79349 14.876L10.5108 14.5034L10.3264 14.1484ZM11.9894 13.2845L12.1738 12.9295L11.9894 12.8337L11.805 12.9295L11.9894 13.2845ZM13.6524 14.1484L13.468 14.5034L14.1854 14.876L14.0465 14.0797L13.6524 14.1484ZM13.3285 12.291L13.0502 12.0037L12.898 12.151L12.9344 12.3598L13.3285 12.291ZM14.6891 10.9736L14.9673 11.261L15.5479 10.6989L14.7489 10.5781L14.6891 10.9736ZM12.8317 10.6928L12.4739 10.8717L12.5668 11.0573L12.7719 11.0883L12.8317 10.6928ZM17.7742 6.16498C17.2313 6.93749 16.5376 7.88599 16.6895 9.10104L17.4833 9.00182C17.376 8.14353 17.8485 7.45064 18.4287 6.62494L17.7742 6.16498ZM16.6899 9.10403C16.7669 9.68441 16.9577 10.2283 17.1704 10.7387C17.2767 10.9938 17.3911 11.2467 17.5008 11.4914C17.6114 11.7382 17.7179 11.9782 17.8137 12.218C18.1946 13.1717 18.3841 14.0665 17.9303 15.0874L18.6614 15.4123C19.2443 14.1007 18.9694 12.9545 18.5566 11.9213C18.454 11.6644 18.3414 11.411 18.2308 11.1641C18.1192 10.9151 18.01 10.6739 17.9088 10.431C17.7064 9.94522 17.5463 9.47671 17.4829 8.99883L16.6899 9.10403ZM17.9229 15.1052C17.5688 16.0184 16.782 16.6369 15.7118 16.9144L15.9125 17.6888C17.1748 17.3615 18.2022 16.5979 18.6688 15.3945L17.9229 15.1052ZM15.7179 16.9129C14.3601 17.242 12.6697 17.481 11.6774 18.9815L12.3447 19.4228C13.1234 18.2453 14.4134 18.0523 15.9064 17.6903L15.7179 16.9129ZM12.3447 18.9815C11.3524 17.481 9.66199 17.242 8.30414 16.9129L8.11566 17.6903C9.60865 18.0523 10.8987 18.2453 11.6774 19.4228L12.3447 18.9815ZM8.30352 16.9127C7.23496 16.6555 6.43525 16.0385 6.10256 15.1144L5.34985 15.3853C5.79467 16.6209 6.85233 17.3862 8.11628 17.6905L8.30352 16.9127ZM6.09173 15.0874C5.63799 14.0665 5.8274 13.1717 6.20835 12.218C6.30417 11.9782 6.41061 11.7382 6.52127 11.4914C6.63093 11.2467 6.74537 10.9938 6.85168 10.7387C7.06435 10.2283 7.25519 9.68441 7.33218 9.10403L6.53913 8.99883C6.47574 9.47671 6.31563 9.94522 6.11322 10.431C6.012 10.6739 5.90287 10.9151 5.79125 11.1641C5.68062 11.411 5.56804 11.6644 5.46543 11.9213C5.05269 12.9545 4.77776 14.1007 5.36068 15.4123L6.09173 15.0874ZM7.33257 9.10104C7.48445 7.88599 6.7907 6.93749 6.24786 6.16498L5.59331 6.62494C6.17353 7.45064 6.64603 8.14353 6.53875 9.00182L7.33257 9.10104ZM6.22345 6.65626L7.17373 5.55479L6.568 5.03221L5.61772 6.13367L6.22345 6.65626ZM6.68617 5.64831C8.40287 6.54193 10.7741 6.30915 12.2789 5.13357L11.7864 4.50315C10.5267 5.4873 8.49207 5.68646 7.05556 4.93869L6.68617 5.64831ZM11.7833 5.13118C13.2892 6.33116 15.664 6.56458 17.3829 5.64631L17.0059 4.94069C15.5715 5.70701 13.5405 5.50849 12.2819 4.50554L11.7833 5.13118ZM16.8915 5.55479L17.8418 6.65626L18.4475 6.13367L17.4972 5.03221L16.8915 5.55479ZM18.1447 5.99496H18.1015V6.79496H18.1447V5.99496ZM11.6317 8.82935L10.7894 10.5139L11.5049 10.8717L12.3472 9.18712L11.6317 8.82935ZM11.0873 10.2973L9.22998 10.5781L9.34955 11.3691L11.2069 11.0883L11.0873 10.2973ZM9.01152 11.261L10.3721 12.5784L10.9286 12.0037L9.56801 10.6862L9.01152 11.261ZM10.2563 12.2223L9.93238 14.0797L10.7205 14.2171L11.0444 12.3598L10.2563 12.2223ZM10.5108 14.5034L12.1738 13.6395L11.805 12.9295L10.142 13.7934L10.5108 14.5034ZM11.805 13.6395L13.468 14.5034L13.8368 13.7934L12.1738 12.9295L11.805 13.6395ZM14.0465 14.0797L13.7225 12.2223L12.9344 12.3598L13.2584 14.2171L14.0465 14.0797ZM13.6067 12.5784L14.9673 11.261L14.4108 10.6862L13.0502 12.0037L13.6067 12.5784ZM14.7489 10.5781L12.8915 10.2973L12.7719 11.0883L14.6293 11.3691L14.7489 10.5781ZM13.1895 10.5139L12.3472 8.82935L11.6317 9.18712L12.4739 10.8717L13.1895 10.5139Z" fill="black" fill-opacity="0.95"></path>
</svg>