<svg width="24" height="24" viewBox="0 0 24 24" fill="none" xmlns="http://www.w3.org/2000/svg">
<path fill-rule="evenodd" clip-rule="evenodd" d="M4.24138 4.42578H3.77037L3.74227 4.89596L2.89689 19.0436L2.86523 19.5734H3.396H7.24994L7.24995 19.5734H20.6268H21.1268V19.0734V11.7883V11.5046L20.8833 11.3591L16.557 8.77323L15.8005 8.32105V9.20241V10.4941L12.6631 8.76454L11.9217 8.35582V9.20241V10.4941L8.78427 8.76454L8.04288 8.35582V9.20241V14.7195H7.50793L6.90361 4.89508L6.87475 4.42578H6.40456H4.24138ZM7.56944 15.7195L7.74499 18.5734H20.1268V12.0719L16.8005 10.0838V11.3407V12.1873L16.0591 11.7786L12.9217 10.049V11.3407V12.1873L12.1803 11.7786L9.04288 10.049V15.2195V15.7195H8.54288H7.56944ZM4.56657 7.86618L4.7124 5.42578H5.93437L6.08448 7.86618H4.56657ZM4.50682 8.86618L4.46406 9.5818H6.19001L6.14599 8.86618H4.50682ZM6.25152 10.5818H4.4043L3.92677 18.5734H6.7431L6.25152 10.5818ZM11.6648 13.0926H9.76729V14.5226H11.6648V13.0926ZM17.4124 13.0926H19.31V14.5226H17.4124V13.0926ZM15.4874 13.0926H13.5899V14.5226H15.4874V13.0926ZM9.76729 15.9527H11.6648V17.3827H9.76729V15.9527ZM19.31 15.9527H17.4124V17.3827H19.31V15.9527ZM13.5899 15.9527H15.4874V17.3827H13.5899V15.9527Z" fill="black" fill-opacity="0.95"></path>
</svg>