<svg width="24" height="24" viewBox="0 0 24 24" fill="none" xmlns="http://www.w3.org/2000/svg">
<path fill-rule="evenodd" clip-rule="evenodd" d="M7.33158 3L7.52231 3.07567L9.42731 3.83148L9.84799 3.99838L9.72368 4.43356L9.12943 6.51394L19.7991 13.3333L20.0357 13.4845L20.0298 13.7653L19.9945 15.4228V20.0017H21V21.0017H2V20.0017H3.00765V11.9147L2.46362 11.659L2.17757 11.5245L2.17632 11.2084C2.17231 10.1949 2.41416 8.60126 3.1468 7.04641C3.88262 5.4848 5.12807 3.9346 7.14268 3.08012L7.33158 3ZM4.00765 11.9328V20.0017H6.03835L6.04869 18.5154L6.05215 18.0189H6.54868H7.19837L9 12.9144V10.6895L6.50279 9.43119L4.00765 11.9328ZM18.9945 15.7253V20.0017H16.9995V18.5189V18.0189H16.4995H16.0103L14.7842 13.6039L18.9945 15.7253ZM15.9995 19.0189V20.0017H14.5379L12.4777 13.353L12.3687 13.0014L12.0006 13.001L11.0005 13L10.6345 12.9996L10.5235 13.3484L8.40717 20.0017H7.03837L7.04521 19.0189H7.55212H7.90588L8.02362 18.6853L9.97149 13.1664L10 13.0856V13V11.1933L13.5774 12.9959L15.1485 18.6527L15.2502 19.0189H15.6302H15.9995ZM11.6314 14.0007L13.491 20.0017H9.45654L11.3655 14.0004L11.6314 14.0007ZM7.2461 8.68595L19.0114 14.6141L19.024 14.0247L8.5794 7.34919L7.2461 8.68595ZM8.12529 6.38843L8.63784 4.59408L7.34837 4.08249C5.72261 4.83199 4.68766 6.12234 4.0514 7.47266C3.4616 8.72437 3.22601 10.0054 3.18351 10.8924L3.48954 11.0362L8.12529 6.38843Z" fill="black" fill-opacity="0.95"></path>
</svg>