<svg id="a" data-name="Layer_1" xmlns="http://www.w3.org/2000/svg" width="24" height="24" viewBox="0 0 24 24">
  <path d="M8.876251,20.6775h3.821249v-1.7475h-3.821249v1.7475ZM3.322501,20.32875h-.69375v-3.5625l1.389375-.489375,1.389375-.489375.868125-1.7475.868125-1.7475c1.05375-.699375,2.228437-1.049062,3.376875-1.223906s2.270625-.174844,3.219375-.174844v6.99h7.63875v2.445M6.797252,12.99h2.078998v2.4225l-1.738125.185625-1.738125.185625M10.9575,14.03625h1.3875v-1.39875h-1.3875v.699375s0,.699375,0,.699375ZM10.9575,17.1825h1.3875v-1.39875h-1.3875v.699375s0,.699375,0,.699375ZM5.2275,21.375c.335625,0,.639375-.136875.859219-.358125s.355781-.526875.355781-.864375-.135937-.643125-.355781-.864375-.523594-.358125-.859219-.358125-.639375.136875-.859219.358125-.355781.526875-.355781.864375.135937.643125.355781.864375.523594.358125.859218.358125ZM15.645,21.375c.335625,0,.639375-.136875.859219-.358125s.355781-.526875.355781-.864375-.135938-.643125-.355781-.864375-.523594-.358125-.859219-.358125-.639375.136875-.859219.358125-.355781.526875-.355781.864375.135938.643125.355781.864375.523594.358125.859219.358125ZM19.117501,21.375c.335625,0,.639375-.136875.859219-.358125s.355781-.526875.355781-.864375-.135938-.643125-.355781-.864375-.523594-.358125-.859219-.358125-.639375.136875-.859219.358125-.355781.526875-.355781.864375.135938.643125.355781.864375.523594.358125.859219.358125Z" fill="none" stroke="#111" stroke-miterlimit="10" stroke-width=".75"></path>
</svg>