<svg width="24" height="24" viewBox="0 0 24 24" fill="none" xmlns="http://www.w3.org/2000/svg">
<path d="M8.96598 17.3885V16.9885H8.56598V17.3885H8.96598ZM12.2704 17.3885H12.6704V16.9885H12.2704V17.3885ZM12.2704 18.8787V19.2787H12.6704V18.8787H12.2704ZM8.96598 18.8787H8.56598V19.2787H8.96598V18.8787ZM4.45215 18.274H4.05215V18.674H4.45215V18.274ZM4.45215 15.1208L4.14953 14.8592L4.05215 14.9719V15.1208H4.45215ZM6.65507 12.5723V12.1723H6.47211L6.35246 12.3107L6.65507 12.5723ZM9.54911 12.5723H9.94911V12.1723H9.54911V12.5723ZM7.75654 15.2504V15.6504H8.15654V15.2504H7.75654ZM16.0715 15.0776L16.3688 15.3452L16.6388 15.0452L16.3364 14.7779L16.0715 15.0776ZM15.4884 15.7255L15.2233 16.0251L15.5203 16.288L15.7857 15.9931L15.4884 15.7255ZM17.3889 8.66321H17.7889V8.26321H17.3889V8.66321ZM17.3889 9.57029V9.97029H17.7889V9.57029H17.3889ZM19.4839 8.08008H19.8839V7.68008H19.4839V8.08008ZM17.3673 8.08008V7.68008H16.9673V8.08008H17.3673ZM18.9007 16.1791H19.3007V15.7791H18.9007V16.1791ZM18.9007 18.274V18.674H19.3007V18.274H18.9007ZM16.2011 14.9696V14.5696H16.022L15.9027 14.7032L16.2011 14.9696ZM17.9721 14.9696H18.3721V14.5696H17.9721V14.9696ZM8.96598 17.7885H12.2704V16.9885H8.96598V17.7885ZM11.8704 17.3885V18.8787H12.6704V17.3885H11.8704ZM12.2704 18.4787H8.96598V19.2787H12.2704V18.4787ZM9.36598 18.8787V17.3885H8.56598V18.8787H9.36598ZM16.0067 19.8835C16.8107 19.8835 17.465 19.2292 17.465 18.4252H16.665C16.665 18.7874 16.3689 19.0835 16.0067 19.0835V19.8835ZM17.465 18.4252C17.465 17.6211 16.8107 16.9669 16.0067 16.9669V17.7669C16.3689 17.7669 16.665 18.063 16.665 18.4252H17.465ZM16.0067 16.9669C15.2027 16.9669 14.5484 17.6211 14.5484 18.4252H15.3484C15.3484 18.063 15.6445 17.7669 16.0067 17.7669V16.9669ZM14.5484 18.4252C14.5484 19.2292 15.2027 19.8835 16.0067 19.8835V19.0835C15.6445 19.0835 15.3484 18.7874 15.3484 18.4252H14.5484ZM5.35923 17.874H4.45215V18.674H5.35923V17.874ZM4.85215 18.274V15.1208H4.05215V18.274H4.85215ZM4.75476 15.3824L6.95769 12.8339L6.35246 12.3107L4.14953 14.8592L4.75476 15.3824ZM6.65507 12.9723H9.54911V12.1723H6.65507V12.9723ZM9.14911 12.5723V17.3669H9.94911V12.5723H9.14911ZM7.00063 19.8619C7.80467 19.8619 8.4589 19.2076 8.4589 18.4036H7.6589C7.6589 18.7658 7.36284 19.0619 7.00063 19.0619V19.8619ZM8.4589 18.4036C8.4589 17.5995 7.80467 16.9453 7.00063 16.9453V17.7453C7.36284 17.7453 7.6589 18.0414 7.6589 18.4036H8.4589ZM7.00063 16.9453C6.19659 16.9453 5.54236 17.5995 5.54236 18.4036H6.34236C6.34236 18.0414 6.63842 17.7453 7.00063 17.7453V16.9453ZM5.54236 18.4036C5.54236 19.2076 6.19659 19.8619 7.00063 19.8619V19.0619C6.63842 19.0619 6.34236 18.7658 6.34236 18.4036H5.54236ZM7.35653 13.4578V15.2504H8.15654V13.4578H7.35653ZM7.75654 14.8504H5.96396V15.6504H7.75654V14.8504ZM10.2345 10.4532L15.8066 15.3773L16.3364 14.7779L10.7643 9.85369L10.2345 10.4532ZM15.7742 14.81L15.1911 15.4579L15.7857 15.9931L16.3688 15.3452L15.7742 14.81ZM15.7535 15.426L9.55504 9.94027L9.02485 10.5393L15.2233 16.0251L15.7535 15.426ZM9.89467 9.06321H17.3889V8.26321H9.89467V9.06321ZM16.9889 8.66321V9.57029H17.7889V8.66321H16.9889ZM17.3889 9.17029H10.8234V9.97029H17.3889V9.17029ZM9.89467 10.8774C10.6123 10.8774 11.2018 10.2879 11.2018 9.57029H10.4018C10.4018 9.84612 10.1705 10.0774 9.89467 10.0774V10.8774ZM11.2018 9.57029C11.2018 8.85264 10.6123 8.26321 9.89467 8.26321V9.06321C10.1705 9.06321 10.4018 9.29447 10.4018 9.57029H11.2018ZM9.89467 8.26321C9.17702 8.26321 8.58758 8.85264 8.58758 9.57029H9.38758C9.38758 9.29447 9.61884 9.06321 9.89467 9.06321V8.26321ZM8.58758 9.57029C8.58758 10.2879 9.17702 10.8774 9.89467 10.8774V10.0774C9.61884 10.0774 9.38758 9.84612 9.38758 9.57029H8.58758ZM17.3889 8.48008H19.4839V7.68008H17.3889V8.48008ZM19.0839 8.08008V10.0238H19.8839V8.08008H19.0839ZM19.0839 10.0238C19.0839 10.386 18.7878 10.6821 18.4256 10.6821V11.4821C19.2296 11.4821 19.8839 10.8279 19.8839 10.0238H19.0839ZM18.4256 10.6821C18.0634 10.6821 17.7673 10.386 17.7673 10.0238H16.9673C16.9673 10.8279 17.6216 11.4821 18.4256 11.4821V10.6821ZM17.7673 10.0238V8.08008H16.9673V10.0238H17.7673ZM17.3673 8.48008H17.3889V7.68008H17.3673V8.48008ZM9.89467 16.5791H18.9007V15.7791H9.89467V16.5791ZM18.5007 16.1791V18.274H19.3007V16.1791H18.5007ZM18.9007 17.874H17.6913V18.674H18.9007V17.874ZM15.4196 16.4455L16.4995 15.236L15.9027 14.7032L14.8228 15.9127L15.4196 16.4455ZM16.2011 15.3696H17.9721V14.5696H16.2011V15.3696ZM17.5721 14.9696V16.1791H18.3721V14.9696H17.5721ZM14.3653 17.882H12.2704V18.682H14.3653V17.882Z" fill="black" fill-opacity="0.95"></path>
</svg>