<svg width="24" height="24" viewBox="0 0 24 24" fill="none" xmlns="http://www.w3.org/2000/svg">
<path d="M10.8017 4.49414V4.09414H10.4017V4.49414H10.8017ZM13.1774 4.49414H13.5774V4.09414H13.1774V4.49414ZM13.1774 7.56096V7.96096H13.5774V7.56096H13.1774ZM10.8017 7.56096H10.4017V7.96096H10.8017V7.56096ZM11.1472 7.56096V7.16096H10.7472V7.56096H11.1472ZM12.8318 7.56096H13.2318V7.16096H12.8318V7.56096ZM10.8233 7.237V7.637H11.2233V7.237H10.8233ZM5.40234 8.29527L5.02877 8.15229L4.71629 8.96878L5.5384 8.67142L5.40234 8.29527ZM10.8233 4.8181H11.2233V4.4181H10.8233V4.8181ZM13.1774 7.237H12.7774V7.637H13.1774V7.237ZM18.5983 8.29527L18.4622 8.67142L19.2844 8.96878L18.9719 8.15229L18.5983 8.29527ZM13.1774 4.8181V4.4181H12.7774V4.8181H13.1774ZM10.8017 4.89414H13.1774V4.09414H10.8017V4.89414ZM12.7774 4.49414V7.56096H13.5774V4.49414H12.7774ZM13.1774 7.16096H10.8017V7.96096H13.1774V7.16096ZM11.2017 7.56096V4.49414H10.4017V7.56096H11.2017ZM11.1472 7.96096H12.8318V7.16096H11.1472V7.96096ZM12.4318 7.56096V18.6404H13.2318V7.56096H12.4318ZM12.4318 18.6404C12.4318 18.888 12.2289 19.0827 11.9895 19.0827V19.8827C12.6573 19.8827 13.2318 19.3431 13.2318 18.6404H12.4318ZM11.9895 19.0827C11.7419 19.0827 11.5472 18.8797 11.5472 18.6404H10.7472C10.7472 19.3081 11.2868 19.8827 11.9895 19.8827V19.0827ZM11.5472 18.6404V7.56096H10.7472V18.6404H11.5472ZM10.8233 6.837C9.38918 6.837 7.3346 7.171 5.26629 7.91912L5.5384 8.67142C7.53038 7.95091 9.4929 7.637 10.8233 7.637V6.837ZM5.77592 8.43824C6.38753 6.84016 8.29307 5.2181 10.8233 5.2181V4.4181C7.95414 4.4181 5.75619 6.2516 5.02877 8.15229L5.77592 8.43824ZM10.4233 4.8181V7.237H11.2233V4.8181H10.4233ZM13.1774 7.637C14.5077 7.637 16.4703 7.95091 18.4622 8.67142L18.7343 7.91912C16.666 7.171 14.6115 6.837 13.1774 6.837V7.637ZM18.9719 8.15229C18.2444 6.2516 16.0465 4.4181 13.1774 4.4181V5.2181C15.7076 5.2181 17.6131 6.84016 18.2247 8.43824L18.9719 8.15229ZM12.7774 4.8181V7.237H13.5774V4.8181H12.7774ZM11.1472 13.757H12.8318V12.957H11.1472V13.757Z" fill="black" fill-opacity="0.95"></path>
</svg>