<svg width="24" height="24" viewBox="0 0 24 24" fill="none" xmlns="http://www.w3.org/2000/svg">
<path fill-rule="evenodd" clip-rule="evenodd" d="M12.1862 4.07535L11.9993 4L11.8123 4.07535L3.15049 7.56678L2 8.03052L3.15049 8.49426L6.00002 9.64286V13.5171C6.00002 14.4788 6.65027 15.364 7.66953 15.9829C8.69987 16.6085 10.1698 17.0097 11.9992 17.0097L12.0616 17.0097H12.0616C12.9822 17.0098 14.0445 17.01 15 16.7509V19.5C15 19.7761 15.2239 20 15.5 20C15.7762 20 16 19.7761 16 19.5V16.3569C16.5031 16.0945 16.9621 15.7171 17.3121 15.28C17.7129 14.7795 18 14.1628 18 13.5171V9.64222L20.848 8.49426L21.9984 8.03052L20.848 7.56678L12.1862 4.07535ZM17 10.0453L15.872 10.5H16V15.1738C16.1984 15.021 16.3793 14.845 16.5316 14.6549C16.8386 14.2715 17 13.8688 17 13.5171V10.0453ZM15 10.8515L12.1862 11.9857L11.9992 12.061L11.8123 11.9857L7.00002 10.0459V13.5171C7.00002 14.0009 7.33857 14.612 8.18852 15.1281C9.02738 15.6374 10.307 16.0097 11.9992 16.0097C13.1043 16.0097 14.1551 16.002 15 15.7058V10.8515ZM11.9992 10.9829L4.67484 8.03052L11.9993 5.07818L19.3236 8.03052L11.9992 10.9829Z" fill="black" fill-opacity="0.95"></path>
</svg>