<svg width="24" height="24" viewBox="0 0 24 24" fill="none" xmlns="http://www.w3.org/2000/svg">
<path fill-rule="evenodd" clip-rule="evenodd" d="M11.436 5.35113C11.436 4.83549 11.8555 4.41602 12.3712 4.41602C12.8868 4.41602 13.3063 4.83549 13.3063 5.35113V5.65685C12.6793 5.57022 12.0516 5.5648 11.436 5.6357V5.35113ZM10.436 5.8205V5.35113C10.436 4.2832 11.3032 3.41602 12.3712 3.41602C13.4391 3.41602 14.3063 4.2832 14.3063 5.35113V5.86534C14.388 5.88827 14.4697 5.91265 14.5511 5.93848C17.5616 6.893 19.6805 9.58568 19.9843 12.7534H20.5861V13.7534H14.8704V12.7534H18.9791C18.6797 10.0135 16.8342 7.71145 14.2489 6.89171C11.4273 5.99704 8.36689 7.117 6.70366 9.68114L5.8647 9.13695C6.9657 7.43958 8.6113 6.28763 10.436 5.8205ZM2.91406 10.6164H3.41406H5.91315H6.41315V11.1164V11.705H6.43262C7.7831 11.705 9.31686 12.443 10.1376 13.5608H12.1731H12.1931L12.213 13.5624C13.0083 13.626 13.6998 14.0061 14.1929 14.5753H18.2353C19.3737 14.5753 20.0952 14.8467 20.5378 15.2341C20.9796 15.6206 21.0859 16.073 21.0859 16.3125V16.6428L20.7821 16.7724L12.3693 20.3602L12.3618 20.3634L12.3618 20.3633C11.5622 20.6891 10.6636 20.6619 9.88306 20.2419L9.88242 20.2415L6.41315 18.3844V19.0095V19.5095H5.91315H3.41406H2.91406V19.0095V11.1164V10.6164ZM6.41315 17.2502V12.705H6.43262C7.56159 12.705 8.8768 13.3951 9.4458 14.3223L9.59214 14.5608H9.87196H12.1519C12.943 14.6321 13.6166 15.2015 13.8725 16.0104H9.3276V17.0104H14.4742H15.0134L14.9728 16.4728C14.9492 16.1598 14.8829 15.8582 14.7794 15.5753H18.2353C19.2248 15.5753 19.6787 15.8111 19.8793 15.9867C19.9017 16.0062 19.9216 16.0256 19.9393 16.0446L11.981 19.4386C11.4456 19.6556 10.8614 19.6329 10.3565 19.361L10.3554 19.3605L6.41315 17.2502ZM3.91406 11.6164V18.5095H5.41315V11.6164H3.91406Z" fill="black" fill-opacity="0.95"></path>
</svg>