<svg width="24" height="24" viewBox="0 0 24 24" fill="none" xmlns="http://www.w3.org/2000/svg">
<path fill-rule="evenodd" clip-rule="evenodd" d="M12.0003 3.79883C10.6967 3.79883 9.64177 4.8538 9.64177 6.15739V7.41264H14.3589V6.15739C14.3589 4.8538 13.3039 3.79883 12.0003 3.79883ZM15.3589 7.41264V6.15739C15.3589 4.30151 13.8562 2.79883 12.0003 2.79883C10.1445 2.79883 8.64177 4.30151 8.64177 6.15739V7.41264H6.10767H5.60767V7.91264V13.6672L3.84289 20.5772L3.68359 21.2009H4.32734H19.6482H19.6733H20.317L20.1577 20.5772L18.393 13.6672V7.91264V7.41264H17.893H15.3589ZM14.3589 8.41264V10.7461H15.3589V8.41264H17.393V13.7301V13.7929L17.4085 13.8538L19.0295 20.2009H4.97109L6.59212 13.8538L6.60767 13.7929V13.7301V8.41264H8.64177V10.7461H9.64177V8.41264H14.3589Z" fill="black" fill-opacity="0.95"></path>
</svg>