<svg width="24" height="24" viewBox="0 0 24 24" fill="none" xmlns="http://www.w3.org/2000/svg">
<path d="M17.549 15.6226L17.4029 15.968L17.4085 15.9703L17.549 15.6226ZM19.4815 20.8126V21.1876H19.8565V20.8126H19.4815ZM3.30407 20.8126H2.92907V21.1876H3.30407V20.8126ZM5.23652 15.6226L5.37707 15.9703L5.37801 15.9699L5.23652 15.6226ZM8.90856 13.5778L9.03893 13.2262L8.53356 13.0388V13.5778H8.90856ZM11.3655 14.4888L11.5678 14.8046L12.2014 14.3988L11.4959 14.1372L11.3655 14.4888ZM8.90856 16.0624H8.53356V16.7478L9.11081 16.3781L8.90856 16.0624ZM13.8222 13.5778H14.1972V13.0388L13.6918 13.2262L13.8222 13.5778ZM13.8222 16.0624L13.62 16.3781L14.1972 16.7478V16.0624H13.8222ZM11.3652 14.4888L11.2349 14.1372L10.5294 14.3988L11.163 14.8046L11.3652 14.4888ZM11.7243 16.2292V16.6042H11.9264L12.0376 16.4353L11.7243 16.2292ZM11.0341 16.2292L10.7208 16.4353L10.8319 16.6042H11.0341V16.2292ZM15.5335 7.20104H15.9085V6.82604H15.5335V7.20104ZM7.27915 7.20104V6.82604H6.90415V7.20104H7.27915ZM12.4691 4.46983V4.84483H13.2191L12.7691 4.24483L12.4691 4.46983ZM12.3034 4.24898L12.6034 4.02398L12.4005 3.75341L12.1105 3.92742L12.3034 4.24898ZM11.3924 4.16616L11.6226 3.87015L11.3924 3.69108L11.1622 3.87015L11.3924 4.16616ZM10.4814 4.24898L10.6743 3.92742L10.3843 3.75341L10.1814 4.02398L10.4814 4.24898ZM10.3158 4.46983L10.0158 4.24483L9.84146 4.47724L10.0229 4.70409L10.3158 4.46983ZM10.4814 4.96675L10.8526 5.01978L10.4814 4.96675ZM10.2606 6.12622L9.90943 6.25789L9.91247 6.26599L9.91587 6.27394L10.2606 6.12622ZM10.7023 6.51271L10.6113 6.87664L10.6209 6.87878L10.7023 6.51271ZM11.3648 6.8716L11.037 7.05371L11.3357 7.59133L11.6768 7.07961L11.3648 6.8716ZM12.0274 6.51271L12.1087 6.87878L12.1196 6.87636L12.1304 6.87328L12.0274 6.51271ZM12.4691 6.12622L12.1255 5.97591L12.1244 5.9785L12.4691 6.12622ZM12.4139 4.46983V4.09483H12.2015L12.0923 4.27689L12.4139 4.46983ZM7.25149 7.20167L6.92153 7.37986L7.02781 7.57667H7.25149V7.20167ZM5.76074 4.44102L5.65819 4.08032L5.20878 4.20809L5.43078 4.6192L5.76074 4.44102ZM11.3925 2.83984L11.495 2.47914L11.3925 2.44998L11.2899 2.47914L11.3925 2.83984ZM17.0242 4.44102L17.3542 4.6192L17.5762 4.20809L17.1268 4.08032L17.0242 4.44102ZM15.5334 7.20167V7.57667H15.7571L15.8634 7.37986L15.5334 7.20167ZM16.6923 17.5542L16.9923 17.7792L17.1702 17.5419L16.9803 17.3141L16.6923 17.5542ZM16.5542 17.3886L16.8423 17.1485L16.6522 16.9203L16.3865 17.0531L16.5542 17.3886ZM15.8365 17.3057L16.0805 17.021L15.8365 16.8118L15.5924 17.021L15.8365 17.3057ZM15.1187 17.3886L15.2864 17.0531L15.0207 16.9203L14.8306 17.1485L15.1187 17.3886ZM14.9807 17.5542L14.6926 17.3141L14.5027 17.5419L14.6807 17.7792L14.9807 17.5542ZM15.1187 17.9407L14.751 17.8671L14.747 17.8868L14.7452 17.9067L15.1187 17.9407ZM14.9531 18.8517L15.3088 18.7331L15.3045 18.7201L15.2992 18.7075L14.9531 18.8517ZM15.3119 19.1554L15.1933 19.5111L15.2011 19.5137L15.2089 19.5159L15.3119 19.1554ZM15.8365 19.4314L15.5109 19.6175L15.8013 20.1258L16.1416 19.6494L15.8365 19.4314ZM16.361 19.1554L16.464 19.5159L16.4718 19.5137L16.4796 19.5111L16.361 19.1554ZM16.7199 18.8517L16.3737 18.7075L16.3684 18.7201L16.3641 18.7331L16.7199 18.8517ZM16.5542 17.9407L16.9277 17.9067L16.9264 17.8928L16.9241 17.879L16.5542 17.9407ZM2.99358 3.52906V20.8384H3.74358V3.52906H2.99358ZM19.1709 3.52906V20.8384H19.9209V3.52906H19.1709ZM5.80934 5.18744V15.181H6.55934V5.18744H5.80934ZM3 4.24658H7.69311V3.49658H3V4.24658ZM15.1473 4.24658H19.868V3.49658H15.1473V4.24658ZM16.3616 9.18695H19.8676V8.43695H16.3616V9.18695ZM16.3616 13.079H19.8676V12.329H16.3616V13.079ZM16.3281 5.10635V15.1827H17.0781V5.10635H16.3281ZM13.7686 14.5088C14.8998 14.9502 16.6902 15.6664 17.4029 15.968L17.6951 15.2772C16.9723 14.9714 15.1738 14.2521 14.0413 13.8101L13.7686 14.5088ZM17.4085 15.9703C18.5451 16.4297 19.1065 17.4652 19.1065 18.5489H19.8565C19.8565 17.2032 19.148 15.8645 17.6896 15.2749L17.4085 15.9703ZM19.1065 18.5489V20.8126H19.8565V18.5489H19.1065ZM19.4815 20.4376H3.30407V21.1876H19.4815V20.4376ZM3.67907 20.8126V18.5489H2.92907V20.8126H3.67907ZM3.67907 18.5489C3.67907 17.4652 4.24049 16.4297 5.37707 15.9703L5.09598 15.2749C3.63755 15.8645 2.92907 17.2032 2.92907 18.5489H3.67907ZM5.37801 15.9699C6.11302 15.6704 7.94916 14.9469 9.07943 14.4783L8.79217 13.7854C7.6587 14.2554 5.85078 14.9674 5.09504 15.2753L5.37801 15.9699ZM14.855 8.44434V9.43817H15.605V8.44434H14.855ZM14.855 9.43817C14.855 10.494 14.4522 11.579 13.8013 12.3966C13.1497 13.2152 12.2822 13.7287 11.3651 13.7287V14.4787C12.5738 14.4787 13.6387 13.8051 14.3881 12.8637C15.1382 11.9214 15.605 10.6737 15.605 9.43817H14.855ZM11.3651 13.7287C10.435 13.7287 9.56778 13.209 8.91955 12.3875C8.27171 11.5665 7.8752 10.481 7.8752 9.43817H7.1252C7.1252 10.659 7.58449 11.9063 8.33077 12.8521C9.07668 13.7974 10.142 14.4787 11.3651 14.4787V13.7287ZM7.8752 9.43817V8.44434H7.1252V9.43817H7.8752ZM8.77819 13.9294L11.2352 14.8404L11.4959 14.1372L9.03893 13.2262L8.77819 13.9294ZM11.1633 14.173L8.70632 15.7466L9.11081 16.3781L11.5678 14.8046L11.1633 14.173ZM9.28356 16.0624V13.5778H8.53356V16.0624H9.28356ZM13.4472 13.5778V16.0624H14.1972V13.5778H13.4472ZM14.0245 15.7466L11.5675 14.173L11.163 14.8046L13.62 16.3781L14.0245 15.7466ZM11.4956 14.8404L13.9526 13.9294L13.6918 13.2262L11.2349 14.1372L11.4956 14.8404ZM12.1012 14.9741L11.411 16.0231L12.0376 16.4353L12.7277 15.3863L12.1012 14.9741ZM11.7243 15.8542H11.0341V16.6042H11.7243V15.8542ZM11.3474 16.0231L10.6572 14.9741L10.0307 15.3863L10.7208 16.4353L11.3474 16.0231ZM10.7148 20.896L11.4049 16.3133L10.6633 16.2016L9.97314 20.7843L10.7148 20.896ZM10.6633 16.2016L9.97314 20.7843L10.7148 20.896L11.4049 16.3133L10.6633 16.2016ZM11.3805 16.3133L12.0707 20.896L12.8123 20.7843L12.1222 16.2016L11.3805 16.3133ZM12.8123 20.7843L12.1222 16.2016L11.3805 16.3133L12.0707 20.896L12.8123 20.7843ZM11.0612 16.6429H11.7513V15.8929H11.0612V16.6429ZM11.7513 15.8929H11.0612V16.6429H11.7513V15.8929ZM15.1585 7.20104V7.75317H15.9085V7.20104H15.1585ZM15.1585 7.75317C15.1585 7.90318 15.0917 8.08812 14.9232 8.29629C14.7557 8.50324 14.5039 8.71199 14.1821 8.89901C13.5379 9.27348 12.6642 9.53148 11.779 9.53148V10.2815C12.7987 10.2815 13.8022 9.98735 14.559 9.54743C14.9378 9.32725 15.2674 9.06324 15.5062 8.7681C15.7441 8.47417 15.9085 8.12768 15.9085 7.75317H15.1585ZM11.779 9.53148C10.5022 9.53148 9.43801 9.2649 8.70642 8.88957C7.94431 8.49857 7.65415 8.05622 7.65415 7.75317H6.90415C6.90415 8.49917 7.53881 9.13348 8.36407 9.55687C9.21985 9.99593 10.4056 10.2815 11.779 10.2815V9.53148ZM7.65415 7.75317V7.20104H6.90415V7.75317H7.65415ZM7.27915 7.57604H15.5059V6.82604H7.27915V7.57604ZM15.5059 7.57604H15.5335V6.82604H15.5059V7.57604ZM12.7691 4.24483L12.6034 4.02398L12.0034 4.47398L12.1691 4.69483L12.7691 4.24483ZM12.1105 3.92742C11.9902 3.99961 11.7714 3.98587 11.6226 3.87015L11.1622 4.46216C11.5103 4.73293 12.0646 4.82962 12.4964 4.57054L12.1105 3.92742ZM11.1622 3.87015C11.0134 3.98587 10.7947 3.99961 10.6743 3.92742L10.2885 4.57054C10.7203 4.82962 11.2745 4.73293 11.6226 4.46216L11.1622 3.87015ZM10.1814 4.02398L10.0158 4.24483L10.6158 4.69483L10.7814 4.47398L10.1814 4.02398ZM10.0229 4.70409C10.1034 4.80471 10.1168 4.86737 10.1102 4.91371L10.8526 5.01978C10.9012 4.67963 10.749 4.41102 10.6086 4.23557L10.0229 4.70409ZM10.1102 4.91371C10.1025 4.96767 10.0837 5.02926 10.0512 5.11183C10.0285 5.16965 9.96876 5.30843 9.9365 5.39554C9.85457 5.61676 9.78033 5.91362 9.90943 6.25789L10.6117 5.99455C10.5751 5.89711 10.5837 5.80748 10.6398 5.65602C10.6766 5.55678 10.6996 5.51267 10.7494 5.38587C10.7894 5.28382 10.8327 5.15907 10.8526 5.01978L10.1102 4.91371ZM9.91587 6.27394C10.0381 6.55905 10.261 6.78894 10.6113 6.87652L10.7932 6.14891C10.7018 6.12606 10.6487 6.07988 10.6052 5.9785L9.91587 6.27394ZM10.6209 6.87878C10.7564 6.90889 10.8472 6.92909 10.9236 6.96278C10.9892 6.99173 11.0184 7.02023 11.037 7.05371L11.6926 6.68948C11.458 6.26708 10.9868 6.19179 10.7836 6.14664L10.6209 6.87878ZM11.6768 7.07961C11.7483 6.9724 11.8437 6.93767 12.1087 6.87878L11.946 6.14664C11.7141 6.19818 11.3126 6.27387 11.0528 6.66358L11.6768 7.07961ZM12.1304 6.87328C12.4269 6.78858 12.6844 6.57578 12.8138 6.27394L12.1244 5.9785C12.0881 6.06315 12.0144 6.12642 11.9244 6.15214L12.1304 6.87328ZM12.8126 6.27653C12.9671 5.92338 12.8891 5.6156 12.8013 5.38986C12.7666 5.30063 12.7035 5.16259 12.6794 5.10485C12.6452 5.02253 12.6266 4.96366 12.6195 4.91371L11.877 5.01978C11.8975 5.16308 11.9444 5.29055 11.9869 5.39285C12.0397 5.51973 12.0646 5.56458 12.1023 5.6617C12.1595 5.80864 12.1643 5.88735 12.1255 5.97591L12.8126 6.27653ZM12.6195 4.91371C12.6182 4.90508 12.6175 4.88559 12.6358 4.84181C12.657 4.79087 12.6865 4.74436 12.7354 4.66276L12.0923 4.27689C12.0329 4.37597 11.8267 4.66741 11.877 5.01978L12.6195 4.91371ZM12.4139 4.84483H12.4691V4.09483H12.4139V4.84483ZM7.58146 7.02349L6.0907 4.26284L5.43078 4.6192L6.92153 7.37986L7.58146 7.02349ZM5.86329 4.80173L11.495 3.20055L11.2899 2.47914L5.65819 4.08032L5.86329 4.80173ZM11.2899 3.20055L16.9216 4.80173L17.1268 4.08032L11.495 2.47914L11.2899 3.20055ZM16.6942 4.26284L15.2035 7.02349L15.8634 7.37986L17.3542 4.6192L16.6942 4.26284ZM15.5334 6.82667H7.25149V7.57667H15.5334V6.82667ZM7.25212 7.58649H9.62628V6.83649H7.25212V7.58649ZM9.62628 6.83649H7.25212V7.58649H9.62628V6.83649ZM13.1597 7.58649H15.5339V6.83649H13.1597V7.58649ZM15.5339 6.83649H13.1597V7.58649H15.5339V6.83649ZM16.9803 17.3141L16.8423 17.1485L16.2661 17.6286L16.4042 17.7943L16.9803 17.3141ZM16.3865 17.0531C16.2926 17.1001 16.1525 17.0827 16.0805 17.021L15.5924 17.5905C15.9069 17.86 16.3742 17.8978 16.7219 17.724L16.3865 17.0531ZM15.5924 17.021C15.5204 17.0827 15.3803 17.1001 15.2864 17.0531L14.951 17.724C15.2988 17.8978 15.766 17.86 16.0805 17.5905L15.5924 17.021ZM14.8306 17.1485L14.6926 17.3141L15.2687 17.7943L15.4068 17.6286L14.8306 17.1485ZM14.6807 17.7792C14.7153 17.8254 14.7355 17.8588 14.7455 17.8826C14.755 17.9052 14.7453 17.8953 14.751 17.8671L15.4864 18.0142C15.5197 17.848 15.4824 17.7001 15.4367 17.5916C15.3915 17.4842 15.3289 17.3935 15.2807 17.3292L14.6807 17.7792ZM14.7452 17.9067C14.7428 17.9337 14.7336 17.9715 14.7105 18.0331C14.6991 18.0636 14.6863 18.0948 14.6708 18.1328C14.656 18.1688 14.6386 18.2113 14.6223 18.2551C14.557 18.4305 14.4821 18.6963 14.6069 18.9959L15.2992 18.7075C15.286 18.6758 15.2801 18.638 15.3252 18.5166C15.3365 18.4862 15.3493 18.4549 15.3647 18.4173C15.3794 18.3816 15.3968 18.3393 15.413 18.296C15.4451 18.2101 15.4808 18.0995 15.4921 17.9746L14.7452 17.9067ZM14.5973 18.9703C14.709 19.3055 14.9897 19.4432 15.1933 19.5111L15.4305 18.7996C15.3683 18.7789 15.3366 18.7608 15.3213 18.7489C15.3148 18.7439 15.3125 18.7409 15.312 18.7402C15.3117 18.7398 15.3105 18.7382 15.3088 18.7331L14.5973 18.9703ZM15.2089 19.5159C15.2579 19.5299 15.3286 19.5476 15.3623 19.5567C15.407 19.5687 15.4386 19.5787 15.4638 19.5889C15.488 19.5988 15.4995 19.6064 15.5044 19.6102C15.5079 19.6129 15.5091 19.6144 15.5109 19.6175L16.162 19.2454C16.0516 19.0521 15.8875 18.9517 15.7467 18.8944C15.6294 18.8465 15.47 18.8105 15.415 18.7948L15.2089 19.5159ZM16.1416 19.6494C16.1622 19.6205 16.1838 19.604 16.2241 19.587C16.2479 19.5769 16.2773 19.5672 16.3186 19.5556C16.3393 19.5497 16.3605 19.5441 16.3853 19.5375C16.4092 19.5311 16.4363 19.5239 16.464 19.5159L16.258 18.7948C16.1247 18.8329 15.7639 18.8878 15.5313 19.2135L16.1416 19.6494ZM16.4796 19.5111C16.6832 19.4432 16.9639 19.3055 17.0756 18.9703L16.3641 18.7331C16.3624 18.7382 16.3612 18.7398 16.3609 18.7402C16.3604 18.7409 16.3581 18.7439 16.3516 18.7489C16.3363 18.7608 16.3047 18.7789 16.2424 18.7996L16.4796 19.5111ZM17.066 18.9959C17.1909 18.6963 17.1159 18.4305 17.0506 18.2551C17.0343 18.2113 17.0169 18.1688 17.0021 18.1328C16.9866 18.0948 16.9738 18.0636 16.9624 18.0331C16.9393 17.9715 16.9301 17.9337 16.9277 17.9067L16.1808 17.9746C16.1921 18.0995 16.2278 18.2101 16.26 18.296C16.2762 18.3393 16.2935 18.3816 16.3082 18.4173C16.3236 18.4549 16.3364 18.4862 16.3477 18.5166C16.3929 18.638 16.3869 18.6758 16.3737 18.7075L17.066 18.9959ZM16.9241 17.879C16.9235 17.8753 16.9241 17.8765 16.9236 17.8802C16.9231 17.8836 16.9224 17.8838 16.9245 17.879C16.927 17.8734 16.9323 17.8632 16.9439 17.8459C16.9561 17.8275 16.9705 17.8082 16.9923 17.7792L16.3923 17.3292C16.3183 17.4279 16.1273 17.6601 16.1843 18.0023L16.9241 17.879ZM18.0567 10.5118C18.0567 10.5061 18.058 10.502 18.0589 10.5C18.0596 10.4983 18.0601 10.4981 18.0596 10.4985C18.0591 10.499 18.0593 10.4986 18.0611 10.4978C18.0631 10.4969 18.0672 10.4957 18.0729 10.4957V11.2457C18.4732 11.2457 18.8067 10.9121 18.8067 10.5118H18.0567ZM18.0729 10.4957C18.0785 10.4957 18.0826 10.4969 18.0846 10.4978C18.0864 10.4986 18.0866 10.499 18.0861 10.4985C18.0857 10.4981 18.0861 10.4983 18.0868 10.5C18.0877 10.502 18.089 10.5061 18.089 10.5118H17.339C17.339 10.9121 17.6725 11.2457 18.0729 11.2457V10.4957ZM18.089 10.5118C18.089 10.5175 18.0877 10.5216 18.0868 10.5236C18.0861 10.5253 18.0857 10.5255 18.0861 10.525C18.0866 10.5246 18.0864 10.525 18.0846 10.5258C18.0826 10.5266 18.0785 10.5279 18.0729 10.5279V9.77791C17.6725 9.77791 17.339 10.1114 17.339 10.5118H18.089ZM18.0729 10.5279C18.0672 10.5279 18.0631 10.5266 18.0611 10.5258C18.0593 10.525 18.0591 10.5246 18.0596 10.525C18.0601 10.5255 18.0596 10.5253 18.0589 10.5236C18.058 10.5216 18.0567 10.5175 18.0567 10.5118H18.8067C18.8067 10.1114 18.4732 9.77791 18.0729 9.77791V10.5279ZM17.7075 10.956V11.8947H18.4575V10.956H17.7075Z" fill="black" fill-opacity="0.95"></path>
</svg>