<svg xmlns="http://www.w3.org/2000/svg" width="225px" height="25px" viewBox="0 0 225.043 25.128">
    <g class="svg-color-white" fill="#ffffff">
        <path d="M98.885,70.145l2.457-8.38h4.249l1.063,3.561,3.087-3.6h4.5l-2.341,8.41-3.4.014,1.244-4.34-3.926,4.34h-1.7L102.9,65.523l-1.367,4.622Z" transform="translate(-65.348 -53.343)"></path>
        <path d="M159.463,61.723l10.436.043-.625,2.694h-3.58l-1.474,5.686h-3.3l1.366-5.665h-3.535Z" transform="translate(-95.989 -53.343)"></path>
        <path d="M215.456,65.356h-3.59l.419-1.615,3.456.027a.56.56,0,0,1,.625.638,1.1,1.1,0,0,1-.91.951m4.281-1.372c.247-2.008-2.076-2.173-2.076-2.173h-8.034l-2.388,8.38h3.116l.713-2.519,2.491.044c.9-.091.947.541.947.541s-.015.568-.075,1.158a.707.707,0,0,0,.575.761h3.385a1.159,1.159,0,0,1-.275-.917,3.621,3.621,0,0,0,.233-1.523c-.079-.7-.872-.877-.985-.972-.1-.043.034-.164.034-.164a3.32,3.32,0,0,0,2.341-2.617" transform="translate(-120.803 -53.388)"></path>
        <path d="M263.725,61.811h3.228L265.4,67.889h5.241l-.612,2.3h-8.471Z" transform="translate(-148.605 -53.389)"></path>
        <path d="M288.757,66.678h-2.14l-.046-.02,1.656-2.469.567,2.469Zm2.277-4.955h-3.922l-5.685,8.423h2.826l.971-1.468.028-.04h4.015v.04l.359,1.468h3.324Z" transform="translate(-158.772 -53.343)"></path>
        <path d="M138.59,67.683c-1.44.734-3.622.486-3.865-.982a3.083,3.083,0,0,1,1.753-3.141,3.638,3.638,0,0,1,1.628-.272c1.016,0,2.037.483,2.169,1.254a2.94,2.94,0,0,1-1.685,3.141m5.209-3.407c-.484-2.312-3.208-3.19-5.675-3.19a10.938,10.938,0,0,0-1.967.2c-2.51.5-5.666,2.747-5.111,5.655.457,2.434,3.763,3.747,7.471,3.019,3.484-.666,5.749-3.335,5.283-5.685" transform="translate(-81.775 -53.017)"></path>
        <path d="M188.3,67.683c-1.437.734-3.642.486-3.866-.982A3.092,3.092,0,0,1,186.2,63.56a3.633,3.633,0,0,1,1.64-.272c1,0,2.005.483,2.151,1.254a2.906,2.906,0,0,1-1.684,3.141m5.185-3.407c-.461-2.312-3.18-3.19-5.633-3.19a11.059,11.059,0,0,0-1.986.2c-2.5.5-5.662,2.747-5.115,5.655.476,2.434,3.776,3.747,7.489,3.019,3.475-.666,5.736-3.335,5.246-5.685" transform="translate(-107.217 -53.017)"></path>
        <path d="M242.366,67.683c-1.422.734-3.6.486-3.856-.982a3.076,3.076,0,0,1,1.745-3.141,3.868,3.868,0,0,1,1.65-.325c1.018.082,2.01.536,2.173,1.307a2.933,2.933,0,0,1-1.712,3.141m5.191-3.407c-.457-2.312-3.185-3.19-5.629-3.19a11.364,11.364,0,0,0-2,.2c-2.476.5-5.633,2.747-5.083,5.655.461,2.434,3.768,3.747,7.461,3.019,3.483-.666,5.75-3.335,5.251-5.685" transform="translate(-134.899 -53.017)"></path>
        <path d="M318.588,70.131c-2.119,0-3.3-.7-3.305-2.176a3.331,3.331,0,0,1,.061-.617l.008-.038h1.379l-.012.056a1.541,1.541,0,0,0-.046.365c0,.86.834,1.36,2.241,1.361,1.742,0,2.872-.683,3.107-1.574a1,1,0,0,0,.037-.264c.02-.816-1.344-.918-2.748-1.092s-2.823-.449-2.83-1.77a2.316,2.316,0,0,1,.09-.614c.442-1.648,2.1-2.588,4.407-2.587,1.577,0,3.164.427,3.168,1.965a2.7,2.7,0,0,1-.061.55l-.008.037H322.7l.01-.053a1.654,1.654,0,0,0,.021-.254c0-.919-1-1.2-2.258-1.2a2.581,2.581,0,0,0-2.585,1.492.936.936,0,0,0-.034.239c0,.339.222.654,1.023.8l3,.536c1.061.186,1.566.754,1.565,1.523a2.348,2.348,0,0,1-.083.585c-.459,1.707-2.261,2.727-4.767,2.727Z" transform="translate(-176.099 -53.067)"></path>
        <path d="M476.3,70.131c-2.117,0-3.3-.7-3.3-2.175a3.294,3.294,0,0,1,.061-.618l.008-.038h1.379l-.013.056a1.546,1.546,0,0,0-.047.366c0,.858.835,1.359,2.243,1.361,1.74,0,2.871-.683,3.106-1.575a.987.987,0,0,0,.038-.264c.02-.816-1.345-.918-2.749-1.092-1.388-.176-2.823-.45-2.829-1.77a2.376,2.376,0,0,1,.09-.614c.443-1.648,2.1-2.588,4.407-2.587,1.577,0,3.165.427,3.17,1.965a2.734,2.734,0,0,1-.061.55l-.007.037h-1.376l.01-.055a1.7,1.7,0,0,0,.021-.254c0-.918-1-1.194-2.257-1.2a2.583,2.583,0,0,0-2.585,1.492.933.933,0,0,0-.032.239c0,.339.221.654,1.022.8l3,.536c1.063.186,1.568.754,1.565,1.524a2.314,2.314,0,0,1-.083.585c-.457,1.707-2.26,2.726-4.768,2.726Z" transform="translate(-256.814 -53.067)"></path>
        <path d="M339.953,70.141a4,4,0,0,1-2.946-.976,3.047,3.047,0,0,1-.828-2.213,5,5,0,0,1,.179-1.3,5.991,5.991,0,0,1,5.973-4.463,4,4,0,0,1,2.945.975,3.054,3.054,0,0,1,.828,2.214,5.08,5.08,0,0,1-.179,1.3,5.988,5.988,0,0,1-5.971,4.462Zm.256-1.049a4.525,4.525,0,0,0,4.343-3.438,4.055,4.055,0,0,0,.148-1.044,2.314,2.314,0,0,0-2.625-2.37,4.525,4.525,0,0,0-4.344,3.438,4.013,4.013,0,0,0-.148,1.042,2.316,2.316,0,0,0,2.627,2.372" transform="translate(-186.793 -53.071)"></path>
        <path d="M358.123,70.142l2.275-8.472.009-.034h1.31l-2,7.458h6.329l-.281,1.049Z" transform="translate(-198.024 -53.298)"></path>
        <path d="M380.564,70.368c-1.9,0-3.159-.848-3.162-2.523a4.467,4.467,0,0,1,.165-1.148l1.358-5.058h1.31l-1.38,5.141a3.26,3.26,0,0,0-.122.842c0,1.071.693,1.691,2.087,1.7a3.3,3.3,0,0,0,3.362-2.565l1.363-5.082.009-.034h1.309L385.5,66.721a4.833,4.833,0,0,1-4.932,3.647Z" transform="translate(-207.891 -53.301)"></path>
        <path d="M401.938,70.151l1.985-7.389h-3.571l.3-1.118H409.1l-.3,1.118h-3.572l-1.984,7.389Z" transform="translate(-219.636 -53.303)"></path>
        <path d="M417.973,70.151l2.276-8.474.009-.033h1.31l-2.285,8.507Z" transform="translate(-228.655 -53.303)"></path>
        <path d="M436.681,62.159a3.994,3.994,0,0,0-2.945-.975,5.99,5.99,0,0,0-5.973,4.465,5.024,5.024,0,0,0-.18,1.3,3.042,3.042,0,0,0,.828,2.212,4,4,0,0,0,2.947.975h0a5.988,5.988,0,0,0,5.971-4.462,5.034,5.034,0,0,0,.179-1.3,3.053,3.053,0,0,0-.828-2.214m-.724,3.49a4.527,4.527,0,0,1-4.344,3.438,2.319,2.319,0,0,1-2.627-2.374,4.064,4.064,0,0,1,.147-1.041,4.529,4.529,0,0,1,4.345-3.439,2.316,2.316,0,0,1,2.627,2.372,4.071,4.071,0,0,1-.147,1.044" transform="translate(-233.573 -53.068)"></path>
        <path d="M455.906,70.142l-3.2-7.121-1.913,7.121H449.48l2.284-8.507h1.722l3.206,7.121,1.9-7.088.009-.033h1.309l-2.284,8.507Z" transform="translate(-244.78 -53.298)"></path>
        <g transform="translate(0 0)">
            <path class="svg-color-transparent" fill="none" d="M47.476,63.461l-.028.026-.023-.026L43.907,51.814,39.36,66.734h.848a17.479,17.479,0,0,1,1.5-4.158,2.751,2.751,0,0,1,2.349-1.49c.732.01,1.367.4,2.169,1.518a17.885,17.885,0,0,1,1.221,2.377A17.863,17.863,0,0,1,48.669,62.6c.787-1.118,1.426-1.508,2.172-1.518a2.727,2.727,0,0,1,2.336,1.49,17.494,17.494,0,0,1,1.512,4.158h.844l-4.547-14.92Z" transform="translate(-34.884 -48.272)"></path>
            <path d="M42.759,44.559A12.564,12.564,0,1,0,55.321,57.112,12.567,12.567,0,0,0,42.759,44.559ZM50,63.021a17.494,17.494,0,0,0-1.512-4.158,2.727,2.727,0,0,0-2.336-1.49c-.746.01-1.385.4-2.172,1.518a17.862,17.862,0,0,0-1.221,2.377,17.884,17.884,0,0,0-1.221-2.377c-.8-1.118-1.436-1.508-2.169-1.518a2.751,2.751,0,0,0-2.349,1.49,17.479,17.479,0,0,0-1.5,4.158h-.848L39.214,48.1l3.519,11.647.023.026.028-.026L46.293,48.1l4.547,14.92Z" transform="translate(-30.191 -44.559)"></path>
        </g>
    </g>
</svg>