<svg width="24" height="24" viewBox="0 0 24 24" fill="none" xmlns="http://www.w3.org/2000/svg">
<path fill-rule="evenodd" clip-rule="evenodd" d="M4.08292 5.28139C4.79812 5.17653 8.26704 4.95312 11.9876 4.95312C13.841 4.95312 15.631 5.00302 17.047 5.06856C18.3958 5.131 19.4382 5.20894 19.8611 5.2761H19.8938L19.9419 5.28562C20.2427 5.34516 20.6248 5.43217 20.8937 5.70394C21.1924 6.00589 21.2507 6.41693 21.2223 6.85209L21.2215 6.86419L21.2202 6.87624C21.0401 8.45456 20.5045 10.6764 20.1167 11.8022C19.9342 12.3322 19.7488 12.7983 19.4037 13.0978C19.0591 13.3968 18.634 13.4699 18.162 13.4797C17.8829 16.6079 15.2245 19.0461 11.9876 19.0461C8.75059 19.0461 6.09199 16.6076 5.81321 13.4792C5.35121 13.4673 4.93503 13.3915 4.59655 13.0978C4.25142 12.7983 4.06608 12.3322 3.88354 11.8022C3.49575 10.6764 2.96013 8.45456 2.78007 6.87624L2.77864 6.86369L2.77785 6.85108C2.74999 6.40999 2.80556 5.98954 3.10655 5.68531C3.38256 5.40633 3.77387 5.3303 4.07725 5.28226L4.08291 5.28136L4.08292 5.28139ZM6.8183 13.481C6.9859 15.0371 7.86199 16.3866 9.12789 17.2067V15.5896C9.12789 14.686 9.32035 13.9882 9.6879 13.481H6.8183ZM10.1279 17.0461V17.7109C10.7046 17.9274 11.3313 18.0461 11.9876 18.0461C12.6343 18.0461 13.2524 17.9309 13.8221 17.7203V17.0138C13.3382 17.4718 12.6815 17.7542 11.9625 17.7542C11.2569 17.7542 10.6099 17.4875 10.1279 17.0461ZM14.2621 13.481C14.6297 13.9882 14.8221 14.686 14.8221 15.5896V17.2229C16.1016 16.4045 16.9882 15.0474 17.1569 13.481H14.2621ZM11.9135 13.4817C10.9992 13.5073 10.2785 14.2501 10.2785 15.1176C10.2785 16.0216 11.0212 16.7542 11.9625 16.7542C12.8999 16.7542 13.6464 16.0005 13.6464 15.1176C13.6464 14.2168 12.9091 13.4862 11.9725 13.481C11.9527 13.4811 11.933 13.4813 11.9135 13.4817ZM4.23075 6.27041C4.87808 6.17628 8.28293 5.95312 11.9876 5.95312C13.8243 5.95312 15.5988 6.0026 17.0007 6.0675C18.4182 6.13311 19.4192 6.21308 19.7327 6.26847L19.7758 6.2761H19.7947C19.9202 6.30206 20.0101 6.32577 20.078 6.35129C20.1513 6.37884 20.1758 6.4002 20.1828 6.40726L20.1831 6.40755C20.1863 6.41079 20.1987 6.42305 20.2104 6.47009C20.2241 6.52502 20.2346 6.61924 20.2252 6.77541C20.0523 8.27719 19.5355 10.419 19.1712 11.4765C18.9772 12.0397 18.8613 12.2444 18.7483 12.3424C18.6649 12.4149 18.5197 12.481 18.0374 12.481H5.96286C5.48057 12.481 5.33538 12.4149 5.25192 12.3424C5.13891 12.2444 5.02302 12.0397 4.82902 11.4765C4.46477 10.4191 3.94801 8.27765 3.77512 6.77589C3.7656 6.61253 3.77611 6.51256 3.79052 6.45333C3.80314 6.40149 3.81633 6.38961 3.81737 6.38868C3.8174 6.38865 3.81742 6.38863 3.81743 6.38862C3.82136 6.38465 3.84174 6.36555 3.91107 6.34136C3.98328 6.31616 4.08353 6.29381 4.23075 6.27041ZM12.0001 10.1299C11.7473 10.1299 11.6022 10.2973 11.6022 10.4856C11.6022 10.6532 11.7602 10.8413 12.0001 10.8413C12.2529 10.8413 12.398 10.6739 12.398 10.4856C12.398 10.3179 12.24 10.1299 12.0001 10.1299ZM10.6022 10.4856C10.6022 9.68656 11.2553 9.12988 12.0001 9.12988C12.7578 9.12988 13.398 9.73171 13.398 10.4856C13.398 11.2846 12.7449 11.8413 12.0001 11.8413C11.2424 11.8413 10.6022 11.2395 10.6022 10.4856ZM11.9773 14.1184C12.5237 14.1128 12.9862 14.554 12.9919 15.1073C12.9976 15.6606 12.5441 16.1111 11.9978 16.1167C11.4514 16.1223 10.9889 15.6811 10.9832 15.1279C10.9775 14.5746 11.431 14.124 11.9773 14.1184Z" fill="black" fill-opacity="0.95"></path>
</svg>