<svg width="25" height="24" viewBox="0 0 25 24" fill="none" xmlns="http://www.w3.org/2000/svg">
<path fill-rule="evenodd" clip-rule="evenodd" d="M3.5 4H4H11H11.5V4.5V5.09173C11.8233 5.03148 12.1578 5 12.5 5V4.5V4H13H21H21.5V4.5V14.5V15H21H18.5V14H20.5V5H13.5V5.09173C15.5436 5.47258 17.1421 7.00304 17.4473 9.00001L18.5 8.99998L19 8.99997V9.49998V10.5C19 11.0771 18.8554 11.6017 18.4786 11.9785C18.2093 12.2478 17.8645 12.3985 17.4791 12.4626C17.4276 12.9967 17.2494 13.7342 16.6346 14.3102L16.0792 14.8565L15.378 14.1435L15.938 13.5928L15.9476 13.5833L15.9477 13.5835C16.4833 13.0844 16.5 12.3552 16.5 11.9114V9.69859C16.5 7.65318 14.7677 6 12.5 6C10.2323 6 8.5 7.65318 8.5 9.69859V13H7.5V12.5C6.6 12.5 6 11.6334 6 10.5V9.50002V8.99619L6.50381 9.00003L7.55148 9.00803C7.80231 7.34702 8.94754 6.00773 10.5 5.38249V5H4.5V13.9931L8.00488 13.9447L8.01868 14.9446L4.0069 15L3.5 15.0069V14.5V4.5V4ZM17.5 11.4313C17.6236 11.3896 17.7102 11.3327 17.7714 11.2715C17.8946 11.1483 18 10.9229 18 10.5V9.99999L17.5 10V11.4313ZM7.5 10.0077V11.5C7.4 11.5 7 11.3667 7 10.5V10.0038L7.5 10.0077ZM10.701 15.5499C9.90753 15.8665 9.04501 16.2173 8.69667 16.3814L8.69398 16.3827L8.69398 16.3827C8.03716 16.6872 7.48312 17.4256 7.5004 18.1668L7.50067 18.1785H7.50054V19H17.5V18.1785C17.5 17.4329 16.9238 16.6876 16.2822 16.3808C16.0918 16.2913 15.5462 16.0756 14.91 15.824L14.668 15.7282C13.9794 15.4557 13.2352 15.159 12.8339 14.9742C12.725 14.9911 12.6136 15 12.5001 15C12.3851 15 12.2725 14.9908 12.1625 14.9733L12.1503 14.9781L12.0609 15.013C11.9836 15.0432 11.8721 15.0868 11.7361 15.1403C11.4641 15.2472 11.0939 15.3932 10.701 15.5499ZM10.9313 14.3826C10.7453 14.4561 10.5412 14.5371 10.3305 14.6211C9.54934 14.9327 8.65482 15.2959 8.27192 15.4761C7.33287 15.9122 6.47521 16.9701 6.50054 18.184V19.5V20H7.00054H18H18.5V19.5V18.1785C18.5 16.9662 17.6222 15.9123 16.7119 15.4778L16.7095 15.4767C16.4887 15.3727 15.909 15.1435 15.2891 14.8985L15.0361 14.7984C14.6958 14.6637 14.3535 14.5276 14.0493 14.4039C14.2807 14.2135 14.4868 13.9886 14.6634 13.7458C15.178 13.0382 15.4987 12.1079 15.4987 11.1879V10.373C15.5223 9.52176 15.2159 8.6763 14.6779 8.04487L14.678 8.04479L14.6707 8.03657C14.127 7.42611 13.3441 7.02888 12.5173 7.0003L12.4914 6.9994L12.4656 7.00119C11.6634 7.05666 10.8792 7.41701 10.3259 8.06398C9.7552 8.7058 9.47796 9.55669 9.50137 10.3965V11.1879C9.50137 12.0971 9.82271 13.0268 10.3361 13.7361C10.5075 13.973 10.7073 14.1939 10.9313 14.3826ZM11.0834 8.71687C11.4446 8.29283 11.963 8.04504 12.5084 8.00077C13.0302 8.02642 13.5498 8.28368 13.9203 8.69759C14.2991 9.14436 14.517 9.7501 14.499 10.3507L14.4987 10.3582V10.3658V11.1879C14.4987 11.8887 14.2496 12.6145 13.8546 13.1577C13.455 13.7072 12.9633 14 12.5001 14C12.0394 14 11.5474 13.7042 11.1461 13.1498C10.7499 12.6023 10.5014 11.876 10.5014 11.1879V10.3893V10.3817L10.5011 10.3742C10.4827 9.76205 10.6864 9.16179 11.0758 8.72556L11.0759 8.72564L11.0834 8.71687Z" fill="black" fill-opacity="0.95"></path>
</svg>