<svg width="24" height="24" viewBox="0 0 24 24" fill="none" xmlns="http://www.w3.org/2000/svg">
<path d="M15.5 11.5574L15.5 9.5L6.50003 9.49955L6.5 11.6433L7.5 12.3752V20.6253H14.5V12.3752L15.5 11.5574Z" stroke="black" stroke-opacity="0.95"></path>
<path fill-rule="evenodd" clip-rule="evenodd" d="M7.7893 3L9.19764 3C9.37042 3 9.5 3.12455 9.5 3.29729L9.50024 9.49993L7.5 9.49987L7.49976 3.29723C7.49976 3.12449 7.61652 3 7.7893 3Z" stroke="black" stroke-opacity="0.95"></path>
<path d="M15.5 8.00002L14.5 7L13.5 9.5L15 9.50002L15.5 8.00002Z" stroke="black" stroke-opacity="0.95"></path>
<path fill-rule="evenodd" clip-rule="evenodd" d="M11 9.5V6.5L12.5 6.5V9.5H11Z" stroke="black" stroke-opacity="0.95"></path>
<path fill-rule="evenodd" clip-rule="evenodd" d="M9.5 18.5H12.5V11.5H9.5V18.5Z" stroke="black" stroke-opacity="0.95"></path>
</svg>