<svg width="25" height="24" viewBox="0 0 25 24" fill="none" xmlns="http://www.w3.org/2000/svg">
<path fill-rule="evenodd" clip-rule="evenodd" d="M3.49805 2.99805H3.99805H12H12.5V3.49805V8H11.5V3.99805H4.49805V9H3.49805V3.49805V2.99805ZM16.5 7.13854C16.5 6.45527 16.9742 5.99998 17.5 5.99998C18.0258 5.99998 18.5 6.45527 18.5 7.13854V7.62047C18.5 7.96204 18.3703 8.32616 18.1608 8.5994C17.9488 8.87596 17.706 8.99998 17.5 8.99998C17.2799 8.99998 17.0383 8.87348 16.832 8.60148C16.6266 8.33063 16.5 7.96629 16.5 7.62047V7.13854ZM17.5 4.99998C16.3383 4.99998 15.5 5.99048 15.5 7.13854V7.62047C15.5 8.1903 15.7015 8.76572 16.0352 9.20572C16.368 9.64456 16.8763 9.99998 17.5 9.99998C17.6121 9.99998 17.7206 9.98807 17.8252 9.96594L17.8244 9.96813L17.8244 9.96815L17.8247 9.96823L17.8255 9.96856L17.829 9.96987L17.8427 9.97498L17.8948 9.99453L18.0847 10.0657C18.244 10.1253 18.4617 10.2068 18.6954 10.2941C19.1616 10.4681 19.695 10.6665 19.9526 10.7597L19.9557 10.7608C20.3255 10.8918 20.5 11.2104 20.5 11.5263V12.5H21.5V11.5263C21.5 10.8426 21.109 10.1092 20.2913 9.81874C20.0389 9.72748 19.512 9.53152 19.0452 9.35722L18.8829 9.29663C18.9076 9.26745 18.9314 9.2378 18.9544 9.20779C19.2899 8.77019 19.5 8.19455 19.5 7.62047V7.13854C19.5 5.99048 18.6617 4.99998 17.5 4.99998ZM6.3046 10.2941C5.83838 10.4681 5.30505 10.6665 5.04738 10.7597L5.04431 10.7608L5.0443 10.7608C4.67448 10.8918 4.5 11.2104 4.5 11.5263V12.5H3.5V11.5263C3.5 10.8426 3.89103 10.1092 4.70876 9.81874C4.96109 9.72748 5.48797 9.53152 5.95484 9.35722L6.10994 9.29929C6.08413 9.2686 6.0592 9.23738 6.03519 9.20572C5.70152 8.76572 5.5 8.1903 5.5 7.62047V7.13854C5.5 5.99048 6.3383 4.99998 7.5 4.99998C8.6617 4.99998 9.5 5.99048 9.5 7.13854V7.62047C9.5 8.19455 9.2899 8.77019 8.95444 9.20779C8.62152 9.64208 8.11434 9.99998 7.5 9.99998C7.3879 9.99998 7.27954 9.9885 7.17524 9.96712L7.17562 9.96813L7.17556 9.96815L7.17534 9.96823L7.17446 9.96856L7.17097 9.96987L7.15734 9.97498L7.10521 9.99453L6.91534 10.0657C6.75603 10.1253 6.53829 10.2068 6.3046 10.2941ZM6.5 7.13854C6.5 6.45527 6.9742 5.99998 7.5 5.99998C8.0258 5.99998 8.5 6.45527 8.5 7.13854V7.62047C8.5 7.96204 8.37026 8.32616 8.1608 8.5994C7.94879 8.87596 7.70597 8.99998 7.5 8.99998C7.27994 8.99998 7.03827 8.87348 6.83199 8.60148C6.6266 8.33063 6.5 7.96629 6.5 7.62047V7.13854ZM14.0002 2.99805H13.5002V3.49805V8H14.5002V3.99805H20.5023V9.02533H21.5023V3.49805V2.99805H21.0023H14.0002ZM9.55 10.8375C8.86541 11.3509 8.5 11.9701 8.5 12.5V15V15.505L7.99502 15.5C7.50887 15.4951 7.09753 15.3156 6.8276 14.9468C6.57751 14.6051 6.5 14.1688 6.5 13.7431V12.5V12H7H7.55584C7.72757 11.2299 8.27725 10.5421 8.95 10.0375C9.77797 9.41651 10.8816 8.99998 12 8.99998C13.1184 8.99998 14.222 9.41651 15.05 10.0375C15.7228 10.5421 16.2725 11.23 16.4442 12.0001H17H17.5V12.5001V13.0001V13.0145C17.5 13.2531 17.5 13.4895 17.4826 13.6978C17.4651 13.9088 17.4268 14.1395 17.3222 14.3487C17.2086 14.5759 17.0293 14.753 16.7812 14.8632C16.6701 14.9126 16.5509 14.9461 16.4253 14.9676C16.3605 15.1702 16.2583 15.3585 16.1368 15.5317C15.9274 15.83 15.6411 16.1118 15.3235 16.3812L14.6765 15.6187C14.9656 15.3734 15.1793 15.1552 15.3182 14.9572C15.456 14.7609 15.5 14.6137 15.5 14.5V12.5C15.5 11.9701 15.1346 11.3509 14.45 10.8375C13.778 10.3335 12.8816 9.99998 12 9.99998C11.1184 9.99998 10.222 10.3335 9.55 10.8375ZM10.3134 17.363C9.60445 17.5698 8.82874 17.8 8.50923 17.9083L8.50701 17.909C8.21168 18.0076 7.94104 18.1751 7.75398 18.3686C7.5646 18.5646 7.49561 18.7476 7.50023 18.8899L7.50049 18.898V18.9061V20H16.5V18.9061C16.5 18.7613 16.4228 18.5729 16.2249 18.3719C16.0307 18.1746 15.7577 18.0064 15.4717 17.908C15.2961 17.8485 14.8059 17.7066 14.239 17.5424L14.0218 17.4795C13.3806 17.2937 12.6894 17.092 12.3396 16.9736L12.3406 16.9706C12.23 16.9898 12.1163 17 12 17C11.8744 17 11.7518 16.988 11.6328 16.9655L11.6372 16.9808L11.6371 16.9808L11.6368 16.9809L11.6354 16.9813L11.6301 16.9828L11.6093 16.9888L11.5295 17.0116L11.2392 17.0949C10.9961 17.1649 10.665 17.2604 10.3134 17.363ZM10.4141 16.2923C10.2924 16.3276 10.1643 16.3648 10.0334 16.403C9.33353 16.6071 8.53457 16.8439 8.18939 16.9608C7.75877 17.1047 7.34534 17.3525 7.03494 17.6736C6.72843 17.9908 6.48751 18.419 6.50049 18.9134V20.5V21H7.00049H17H17.5V20.5V18.9061C17.5 18.4105 17.2466 17.9843 16.9375 17.6703C16.6249 17.3529 16.2149 17.1059 15.7956 16.9619L15.7936 16.9612C15.5955 16.8941 15.0804 16.7449 14.5253 16.5843L14.3001 16.519C14.0541 16.4478 13.8063 16.3757 13.5756 16.3077C13.6535 16.2313 13.7267 16.1507 13.7949 16.067C14.2251 15.5387 14.499 14.8376 14.499 14.1342V13.5549C14.5187 12.8941 14.2519 12.2496 13.7996 11.7756L13.7997 11.7755L13.7919 11.7677C13.3347 11.3094 12.688 11.021 12.0155 11.0002L11.9923 10.9995L11.9692 11.0009C11.3197 11.041 10.6711 11.3016 10.2045 11.7882C9.72266 12.2725 9.4816 12.9225 9.5011 13.5717V14.1342C9.5011 14.8302 9.77561 15.5308 10.2045 16.0598C10.2698 16.1403 10.3398 16.2182 10.4141 16.2923ZM10.9239 12.4827C11.1887 12.2053 11.5808 12.0322 12.0075 12.0006C12.4121 12.0192 12.806 12.1974 13.08 12.47C13.3597 12.7653 13.5119 13.1554 13.4993 13.5301L13.499 13.5385V13.547V14.1342C13.499 14.5885 13.3169 15.0703 13.0195 15.4355C12.7209 15.8021 12.3518 16 12 16C11.6507 16 11.2814 15.8003 10.9813 15.4301C10.6825 15.0615 10.5011 14.5791 10.5011 14.1342V13.5637V13.5553L10.5008 13.5469C10.4878 13.1606 10.6311 12.7759 10.9158 12.4911L10.9159 12.4912L10.9239 12.4827Z" fill="black" fill-opacity="0.95"></path>
</svg>